<?xml version="1.0" encoding="UTF-8"?>
<svg viewBox="0 0 430 96" fill="none" xmlns="http://www.w3.org/2000/svg" role="img" aria-labelledby="kecLogoTitle">
  <title id="kecLogoTitle">Kids Events Cameroon</title>
  <g fill="none" stroke="#466d6b" color="#466d6b">
    <rect x="3.5" y="3.5" width="89" height="89" rx="26" stroke="currentColor" stroke-width="3"/>
    <path fill="#f59f21" stroke="none" d="M48 13.5l2.1 6.4 6.7.2-5.3 4.1 1.9 6.4L48 26.7l-5.4 3.9 1.9-6.4-5.3-4.1 6.7-.2z"/>
    <circle cx="30" cy="33" r="7.2" fill="currentColor" stroke="none"/>
    <path fill="currentColor" stroke="none" d="M21.5 42.5c2.4-1.2 6.2-1 8.5.6 2.1-1.4 6.2-1.8 8.8-.2-1.2 8.6-3.4 14.8-8.7 20.4-5.2-5.4-8-11.8-8.6-20.8Z"/>
    <path fill="currentColor" stroke="none" d="M26.2 62.2c-.8 6.4-2.6 11.2-5.2 14.3h7.4c1.4-4.2 2-8.6 2.1-13.2-1.6.2-3 .1-4.3-1.1Z"/>
    <path fill="currentColor" stroke="none" d="M37.4 61.4c.8 5.2 1.2 9.6.4 14.1h7.2c-2.2-3.4-3.8-8.2-4.6-14.6-1.2.4-2.2.6-3 .5Z"/>
    <path fill="none" stroke="currentColor" stroke-linecap="round" stroke-width="3.2" d="M23 41.5c-6.5-7.2-11.2-5.6-14 2"/>
    <circle cx="64.5" cy="25.5" r="3.1" fill="currentColor" stroke="none"/>
    <circle cx="71.2" cy="30.2" r="3.4" fill="currentColor" stroke="none"/>
    <circle cx="66" cy="34.5" r="7.4" fill="currentColor" stroke="none"/>
    <path fill="currentColor" stroke="none" d="M56.8 44.2c2.8-2 7.4-2.6 10.4-.4 2.6-1.4 6.8-1.2 9.2.8-.2 8.2-2.6 15-8.2 21.2-6.2-5.6-10-12.4-11.4-21.6Z"/>
    <path fill="currentColor" stroke="none" d="M62.4 64c.4 5.6.2 10.2-1.4 14.2h7.6c1.6-4 2.6-8.6 2.8-14.4-3 .6-5.8.6-9 0Z"/>
    <path fill="currentColor" stroke="none" d="M73.2 64.8c1.2 5.4 3.2 9.8 6.4 13.4h-7.2c-.8-4.2-1.4-8.6-1.6-13.2 1 .2 1.7.1 2.4-.2Z"/>
    <rect x="37" y="47" width="22" height="18" rx="3" fill="currentColor" fill-opacity="0.12" stroke="currentColor" stroke-width="2.2"/>
    <path stroke="currentColor" stroke-width="2.2" d="M37 53.2h22"/>
    <rect x="41.2" y="43.6" width="2.4" height="6.2" rx="1" fill="currentColor" stroke="none"/>
    <rect x="52.4" y="43.6" width="2.4" height="6.2" rx="1" fill="currentColor" stroke="none"/>
    <rect x="40.6" y="56.4" width="3.6" height="3.6" rx="0.7" fill="currentColor" stroke="none"/>
    <rect x="46.2" y="56.4" width="3.6" height="3.6" rx="0.7" fill="#f59f21" stroke="none"/>
    <rect x="51.8" y="56.4" width="3.6" height="3.6" rx="0.7" fill="currentColor" stroke="none"/>
  </g>
  <text x="112" y="34" fill="#466d6b" font-family="Bitter, Georgia, serif" font-size="22" font-weight="600">Kids</text>
  <text x="112" y="68" fill="#466d6b" font-family="Inter, system-ui, sans-serif" font-size="34" font-weight="800" letter-spacing="-0.04em">Events</text>
  <text x="112" y="88" fill="#466d6b" fill-opacity="0.78" font-family="Inter, system-ui, sans-serif" font-size="11" font-weight="700" letter-spacing="0.32em">CAMEROON</text>
</svg>
